<svg width="21" height="34" viewBox="0 0 21 34" fill="none" xmlns="http://www.w3.org/2000/svg">
<path d="M9.625 31.5625C10.125 32.75 11.4375 33.375 12.625 32.875L14.875 31.9375C16.125 31.4375 16.6875 30 16.1875 28.75L13.5 22.25H17.625C19.6875 22.25 20.75 19.6875 19.3125 18.1875L4 1.75C2.5625 0.1875 0 1.25 0 3.4375V26.875C0 29.0625 2.625 30.125 4.0625 28.5L7 25.1875L9.625 31.5625ZM7.625 21.4375L2.5625 27.1875C2.3125 27.4375 2 27.25 2 26.875V3.4375C2 3.0625 2.3125 2.875 2.5625 3.125L17.875 19.5625C18.0625 19.8125 17.9375 20.25 17.625 20.25H10.5L14.3125 29.5C14.4375 29.75 14.3125 30 14.125 30.0625L11.875 31C11.6875 31.0625 11.5 31 11.4375 30.8125L7.625 21.4375Z" fill="#BDA655"/>
</svg>
