<svg width="31" height="32" viewBox="0 0 31 32" fill="none" xmlns="http://www.w3.org/2000/svg">
<path d="M30.125 18.75L28.125 17.5625C28.125 17.125 28.1875 16.4375 28.1875 16C28.1875 15.625 28.125 14.9375 28.125 14.5L30.125 13.3125C30.75 13 31 12.25 30.8125 11.625C30.125 9.25 28.875 7.125 27.25 5.375C26.75 4.875 26 4.75 25.375 5.125L23.375 6.3125C22.6875 5.75 21.5 5.0625 20.6875 4.75V2.4375C20.6875 1.6875 20.25 1.125 19.5625 0.9375C17.1875 0.375 14.75 0.375 12.375 0.9375C11.6875 1.125 11.25 1.6875 11.25 2.4375V4.75C10.4375 5.0625 9.25 5.75 8.5625 6.3125L6.5625 5.125C5.9375 4.75 5.1875 4.875 4.6875 5.375C3.0625 7.125 1.8125 9.25 1.125 11.625C0.9375 12.25 1.1875 13 1.8125 13.3125L3.8125 14.5C3.8125 14.9375 3.75 15.625 3.75 16C3.75 16.4375 3.8125 17.125 3.8125 17.5625L1.8125 18.75C1.1875 19.0625 0.9375 19.8125 1.125 20.4375C1.8125 22.8125 3.0625 24.9375 4.6875 26.6875C5.1875 27.1875 5.9375 27.3125 6.5625 26.9375L8.5625 25.75C9.25 26.3125 10.4375 27 11.25 27.3125V29.625C11.25 30.375 11.6875 30.9375 12.375 31.125C14.75 31.6875 17.1875 31.6875 19.5625 31.125C20.25 30.9375 20.6875 30.375 20.6875 29.625V27.3125C21.5 27 22.6875 26.3125 23.375 25.75L25.375 26.9375C26 27.3125 26.75 27.1875 27.25 26.6875C28.875 24.9375 30.125 22.8125 30.8125 20.4375C31 19.8125 30.75 19.0625 30.125 18.75ZM26.0625 25L23.125 23.3125C21.4375 24.8125 20.875 25.125 18.6875 25.9375V29.25C17.9375 29.4375 16.75 29.5625 16 29.5625C15.1875 29.5625 14 29.4375 13.25 29.25V25.9375C11.125 25.1875 10.5 24.8125 8.8125 23.3125L5.875 25C4.6875 23.625 3.75 22 3.125 20.25L6.0625 18.625C5.625 16.375 5.625 15.6875 6.0625 13.4375L3.125 11.8125C3.75 10.0625 4.6875 8.4375 5.875 7.0625L8.8125 8.75C10.5 7.25 11.125 6.875 13.25 6.125V2.8125C14 2.625 15.1875 2.5 16 2.5C16.75 2.5 17.9375 2.625 18.6875 2.8125V6.125C20.8125 6.875 21.4375 7.25 23.125 8.75L26.0625 7.0625C27.25 8.4375 28.1875 10.0625 28.8125 11.8125L25.875 13.4375C26.3125 15.6875 26.3125 16.375 25.875 18.625L28.8125 20.25C28.1875 22 27.25 23.625 26.0625 25ZM16 10C12.6875 10 10 12.75 10 16C10 19.3125 12.6875 22 16 22C19.25 22 22 19.3125 22 16C22 12.75 19.25 10 16 10ZM16 20C13.75 20 12 18.25 12 16C12 13.8125 13.75 12 16 12C18.1875 12 20 13.8125 20 16C20 18.25 18.1875 20 16 20Z" fill="#BDA655"/>
</svg>
