<svg width="40" height="28" viewBox="0 0 40 28" fill="none" xmlns="http://www.w3.org/2000/svg">
<path d="M25.3125 12.5625L20.3125 8.0625C19.5625 7.375 18.375 7.375 17.625 8.0625L12.625 12.5625C11.25 13.75 12.125 16 14 16H18V21.25C18 21.6875 18.3125 22 18.75 22H19.25C19.625 22 20 21.6875 20 21.25V16H24C25.8125 16 26.6875 13.75 25.3125 12.5625ZM14 14L19 9.5L24 14H14ZM35.6875 12.9375C35.875 12.3125 36 11.6875 36 11C36 7.1875 32.8125 4 29 4C27.9375 4 26.9375 4.25 26 4.6875C24 1.875 20.6875 0 17 0C11.0625 0 6.25 4.6875 6 10.5625C2.4375 11.8125 0 15.1875 0 19C0 24 4 28 9 28H32C36.375 28 40 24.4375 40 20C40 17.0625 38.375 14.375 35.6875 12.9375ZM32 26H9C5.125 26 2 22.875 2 19C2 15.5 4.625 12.5625 8.0625 12.0625C8 11.75 8 11.375 8 11C8 6.0625 12 2 17 2C20.75 2 23.9375 4.3125 25.3125 7.625C26.25 6.625 27.5 6 29 6C31.75 6 34 8.25 34 11C34 12.1875 33.5625 13.25 32.9375 14.125C35.8125 14.5625 38 17.0625 38 20C38 23.3125 35.3125 26 32 26Z" fill="#BDA655"/>
</svg>
