<svg width="32" height="32" viewBox="0 0 32 32" fill="none" xmlns="http://www.w3.org/2000/svg">
<path d="M27 12H26V6.875C26 6.3125 25.75 5.8125 25.375 5.4375L20.5625 0.625C20.1875 0.25 19.6875 0 19.125 0H7.875C6.8125 0 6 0.9375 6 2V12H5C2.1875 12 0 14.25 0 17V23C0 23.5625 0.4375 24 1 24H6V31C6 31.5625 6.4375 32 7 32H25C25.5 32 26 31.5625 26 31V24H31C31.5 24 32 23.5625 32 23V17C32 14.25 29.75 12 27 12ZM20 2.875L23.125 6H20V2.875ZM8 2H18V6C18 7.125 18.875 8 20 8H24V12H8V2ZM24 30H8V24H24V30ZM30 22H2V17C2 15.375 3.3125 14 5 14H27C28.625 14 30 15.375 30 17V22ZM25 16.5C24.125 16.5 23.5 17.1875 23.5 18C23.5 18.875 24.125 19.5 25 19.5C25.8125 19.5 26.5 18.875 26.5 18C26.5 17.1875 25.8125 16.5 25 16.5Z" fill="#BDA655"/>
</svg>
