<svg width="30" height="38" viewBox="0 0 30 38" fill="none" xmlns="http://www.w3.org/2000/svg">
<path d="M1 27.4653C1.00158 27.4763 1.00311 27.4869 1.00461 27.4974C1.01468 27.5676 1.02332 27.6278 1.03391 27.6924L1.03392 27.6925C1.06729 27.8962 1.13264 28.019 1.20643 28.0982M1 27.4653L1.20675 28.0985L1.20643 28.0982M1 27.4653V27.4373V27.4034V27.3695V27.3356V27.3017V27.2678V27.2339V27.1999V27.166V27.1321V27.0982V27.0643V27.0304V26.9965V26.9626V26.9286V26.8947V26.8608V26.8269V26.793V26.7591V26.7252V26.6913V26.6573V26.6234V26.5895V26.5556V26.5217V26.4878V26.4539V26.42V26.386V26.3521V26.3182V26.2843V26.2504V26.2165V26.1826V26.1487V26.1147V26.0808V26.0469V26.013V25.9791V25.9452V25.9113V25.8774V25.8434V25.8095V25.7756V25.7417V25.7078V25.6739V25.64V25.6061V25.5721V25.5382V25.5043V25.4704V25.4365V25.4026V25.3687V25.3348V25.3008V25.2669V25.233V25.1991V25.1652V25.1313V25.0974V25.0635V25.0295V24.9956V24.9617V24.9278V24.8939V24.86V24.8261V24.7922V24.7582V24.7243V24.6904V24.6565V24.6226V24.5887V24.5548V24.5209V24.4869V24.453V24.4191V24.3852V24.3513V24.3174V24.2835V24.2496V24.2156V24.1817V24.1478V24.1139V24.08V24.0461V24.0122V23.9783V23.9443V23.9104V23.8765V23.8426V23.8087V23.7748V23.7409V23.707V23.673V23.6391V23.6052V23.5713V23.5374V23.5035V23.4696V23.4356V23.4017V23.3678V23.3339V23.3V23.2661V23.2322V23.1983V23.1643V23.1304V23.0965V23.0626V23.0287V22.9948V22.9609V22.927V22.893V22.8591V22.8252V22.7913V22.7574V22.7235V22.6896V22.6557V22.6217V22.5878V22.5539V22.52V22.4861V22.4522V22.4183V22.3844V22.3504V22.3165V22.2826V22.2487V22.2148V22.1809V22.147V22.1131V22.0791V22.0452V22.0113V21.9774V21.9435V21.9096V21.8757V21.8418V21.8078V21.7739V21.74V21.7061V21.6722V21.6383V21.6044V21.5704V21.5365V21.5026V21.4687V21.4348V21.4009V21.367V21.3331V21.2991V21.2652V21.2313V21.1974V21.1635V21.1296V21.0957V21.0618V21.0278V20.9939V20.96V20.9261V20.8922V20.8583V20.8244V20.7905V20.7565V20.7226V20.6887V20.6548V20.6209V20.587V20.5531V20.5192V20.4852V20.4513V20.4174V20.3835V20.3496V20.3157V20.2818V20.2478V20.2139V20.18V20.1461V20.1122V20.0783V20.0444V20.0105V19.9765V19.9426V19.9087V19.8748V19.8409V19.807V19.7731V19.7392V19.7052V19.6713V19.6374V19.6035V19.5696V19.5357V19.5018V19.4679V19.4339V19.4V19.3661V19.3322V19.2983V19.2644V19.2305V19.1966V19.1626V19.1287V19.0948V19.0609V19.027V18.9931V18.9592V18.9252V18.8913V18.8574V18.8235V18.7896V18.7557V18.7218V18.6879V18.6539V18.62V18.5861V18.5522V18.5183V18.4844V18.4505V18.4166V18.3826V18.3487V18.3148V18.2809V18.247V18.2131V18.1792V18.1453V18.1113V18.0774V18.0435V18.0096V17.9757V17.9418V17.9079V17.8739V17.84V17.8061V17.7722V17.7383V17.7044V17.6705V17.6366V17.6026V17.5687V17.5348V17.5009V17.467V17.4331V17.3992V17.3653V17.3313V17.2974V17.2635V17.2296V17.1957V17.1618V17.1279V17.094V17.06V17.0261V16.9922V16.9583V16.9244V16.8905V16.8566V16.8227V16.7887V16.7548V16.7209V16.687V16.6531V16.6192V16.5853V16.5513V16.5174V16.4835V16.4496V16.4157V16.3818V16.3479V16.314V16.28V16.2461V16.2122V16.1783V16.1444V16.1105V16.0766V16.0427V16.0087V15.9748V15.9409V15.907V15.8731V15.8392V15.8053V15.7714V15.7374V15.7035V15.6696V15.6357V15.6018V15.5679V15.534V15.5001V15.4661V15.4322V15.3983V15.3644V15.3305V15.2966V15.2627V15.2288V15.1948V15.1609V15.127V15.0931V15.0592V15.0253V14.9914V14.9574V14.9235V14.8896V14.8557V14.8218V14.7879V14.754V14.7201V14.6861V14.6522V14.6183V14.5844V14.5505V14.5166V14.4827V14.4488V14.4148V14.3809V14.347V14.3131V14.2792V14.2453V14.2114V14.1775V14.1435V14.1096V14.0757V14.0418V14.0079V13.974V13.9401V13.9062V13.8722V13.8383V13.8044V13.7705V13.7366V13.7027V13.6688V13.6349V13.6009V13.567V13.5331V13.4992V13.4653V13.4314V13.3975V13.3636V13.3296V13.2957V13.2618V13.2279V13.194V13.1601V13.1262V13.0923V13.0583V13.0244V12.9905V12.9566V12.9227V12.8888V12.8549V12.821V12.787V12.7531V12.7192V12.6853V12.6514V12.6175V12.5836V12.5497V12.5157V12.4818V12.4479V12.414V12.3801V12.3462V12.3123V12.2783V12.2444V12.2105V12.1766V12.1427V12.1088V12.0749V12.041V12.0071V11.9731V11.9392V11.9053V11.8714V11.8375V11.8036V11.7697V11.7358V11.7018V11.6679V11.634V11.6001V11.5662V11.5323V11.4984V11.4645V11.4305V11.3966V11.3627V11.3288V11.2949V11.261V11.2271V11.1932V11.1592V11.1253V11.0914V11.0575V11.0236V10.9897V10.9558V10.9219V10.8879V10.854V10.8201V10.7862V10.7523V10.7184V10.6845V10.6506V10.6166V10.5827V10.5488V10.5149V10.481V10.4471V10.4132V10.3793V10.3453V10.3114V10.2775V10.2436V10.2433C1.00388 10.2139 1.00708 10.1887 1.00997 10.166C1.01745 10.1072 1.02281 10.065 1.03237 10.0099L1.03239 10.0098C1.19261 9.08496 1.64842 8.42173 2.4441 7.9664L1 27.4653ZM1.20643 28.0982C1.20647 28.0981 1.22353 28.1147 1.30291 28.1711M1.20643 28.0982L1.30291 28.1711M19.6224 2.11558L19.622 2.11558C19.3479 2.11295 19.0772 2.1133 18.8004 2.11366L19.6224 2.11558ZM19.6224 2.11558C19.6594 2.11592 19.6812 2.11719 19.6941 2.11846M19.6224 2.11558L19.6941 2.11846M16.0265 36.753L16.0268 36.753C16.5918 36.5999 17.1545 36.4393 17.7246 36.2766C17.8294 36.2467 17.9345 36.2167 18.0399 36.1867L18.3139 37.1484L18.0399 36.1867C18.8932 35.9436 19.7454 35.7024 20.5967 35.4615C22.7141 34.8622 24.8256 34.2646 26.9331 33.6441C27.5598 33.4595 28.0046 33.1657 28.3192 32.7972C28.6361 32.4259 28.8662 31.9253 28.9755 31.2595L16.0265 36.753ZM16.0265 36.753C15.9603 36.771 15.9204 36.7759 15.846 36.7851C15.7984 36.791 15.7367 36.7986 15.6449 36.8125M16.0265 36.753L16.2883 37.7182C16.1624 37.7523 16.0321 37.7697 15.9017 37.787C15.8419 37.795 15.782 37.8029 15.7227 37.8125M15.7227 37.8125V36.8125H15.6449M15.7227 37.8125H15.2148H15.7227ZM15.6449 36.8125H15.3363M15.6449 36.8125H15.3363M15.3363 36.8125C15.3039 36.8065 15.2668 36.8011 15.2266 36.7976L15.2253 36.7975C14.8181 36.7631 14.447 36.6514 14.1061 36.4586L14.1059 36.4585C12.8845 35.7683 11.6649 35.0761 10.4443 34.3834C9.97716 34.1183 9.5099 33.8531 9.04236 33.588L8.54902 34.4578L9.04234 33.588C8.82558 33.465 8.61112 33.3443 8.39827 33.2245C7.91036 32.9498 7.43099 32.68 6.95217 32.3995L15.3363 36.8125ZM26.9729 3.13203L26.7052 4.09553C25.4285 3.74082 24.1525 3.37915 22.8794 3.0183C22.3902 2.87964 21.9014 2.74111 21.4132 2.60314L26.9729 3.13203ZM26.9729 3.13203L26.7052 4.09554C27.2835 4.25621 27.7327 4.47402 28.0864 4.80823M26.9729 3.13203L28.0864 4.80823M6.49283 31.3333L6.49279 31.3334C6.39642 31.7342 6.58159 32.1823 6.95213 32.3995L6.49283 31.3333ZM6.49283 31.3333C6.61013 30.8451 7.00356 30.5352 7.50303 30.535L6.49283 31.3333ZM20.3756 30.5326H19.3756H19.3753H19.375H19.3748H19.3745H19.3742H19.374H19.3737H19.3734H19.3731H19.3729H19.3726H19.3723H19.3721H19.3718H19.3715H19.3712H19.371H19.3707H19.3704H19.3701H19.3699H19.3696H19.3693H19.3691H19.3688H19.3685H19.3683H19.368H19.3677H19.3674H19.3672H19.3669H19.3666H19.3664H19.3661H19.3658H19.3655H19.3653H19.365H19.3647H19.3645H19.3642H19.3639H19.3637H19.3634H19.3631H19.3628H19.3626H19.3623H19.362H19.3618H19.3615H19.3612H19.361H19.3607H19.3604H19.3601H19.3599H19.3596H19.3593H19.3591H19.3588H19.3585H19.3583H19.358H19.3577H19.3575H19.3572H19.3569H19.3566H19.3564H19.3561H19.3558H19.3556H19.3553H19.355H19.3548H19.3545H19.3542H19.354H19.3537H19.3534H19.3532H19.3529H19.3526H19.3524H19.3521H19.3518H19.3515H19.3513H19.351H19.3507H19.3505H19.3502H19.3499H19.3497H19.3494H19.3491H19.3489H19.3486H19.3483H19.3481H19.3478H19.3475H19.3473H19.347H19.3467H19.3465H19.3462H19.3459H19.3457H19.3454H19.3451H19.3449H19.3446H19.3443H19.3441H19.3438H19.3435H19.3433H19.343H19.3427H19.3425H19.3422H19.3419H19.3417H19.3414H19.3411H19.3409H19.3406H19.3403H19.3401H19.3398H19.3395H19.3393H19.339H19.3387H19.3385H19.3382H19.3379H19.3377H19.3374H19.3371H19.3369H19.3366H19.3363H19.3361H19.3358H19.3355H19.3353H19.335H19.3347H19.3345H19.3342H19.3339H19.3337H19.3334H19.3332H19.3329H19.3326H19.3324H19.3321H19.3318H19.3316H19.3313H19.331H19.3308H19.3305H19.3302H19.33H19.3297H19.3294H19.3292H19.3289H19.3286H19.3284H19.3281H19.3279H19.3276H19.3273H19.3271H19.3268H19.3265H19.3263H19.326H19.3257H19.3255H19.3252H19.3249H19.3247H19.3244H19.3242H19.3239H19.3236H19.3234H19.3231H19.3228H19.3226H19.3223H19.322H19.3218H19.3215H19.3213H19.321H19.3207H19.3205H19.3202H19.3199H19.3197H19.3194H19.3191H19.3189H19.3186H19.3184H19.3181H19.3178H19.3176H19.3173H19.317H19.3168H19.3165H19.3163H19.316H19.3157H19.3155H19.3152H19.3149H19.3147H19.3144H19.3141H19.3139H19.3136H19.3134H19.3131H19.3128H19.3126H19.3123H19.312H19.3118H19.3115H19.3113H19.311H19.3107H19.3105H19.3102H19.3099H19.3097H19.3094H19.3092H19.3089H19.3086H19.3084H19.3081H19.3078H19.3076H19.3073H19.3071H19.3068H19.3065H19.3063H19.306H19.3058H19.3055H19.3052H19.305H19.3047H19.3044H19.3042H19.3039H19.3037H19.3034H19.3031H19.3029H19.3026H19.3023H19.3021H19.3018H19.3016H19.3013H19.301H19.3008H19.3005H19.3003H19.3H19.2997H19.2995H19.2992H19.299H19.2987H19.2984H19.2982H19.2979H19.2976H19.2974H19.2971H19.2969H19.2966H19.2963H19.2961H19.2958H19.2956H19.2953H19.295H19.2948H19.2945H19.2943H19.294H19.2937H19.2935H19.2932H19.2929H19.2927H19.2924H19.2922H19.2919H19.2916H19.2914H19.2911H19.2909H19.2906H19.2903H19.2901H19.2898H19.2896H19.2893H19.289H19.2888H19.2885H19.2883H19.288H19.2877H19.2875H19.2872H19.287H19.2867H19.2864H19.2862H19.2859H19.2857H19.2854H19.2851H19.2849H19.2846H19.2844H19.2841H19.2838H19.2836H19.2833H19.2831H19.2828H19.2825H19.2823H19.282H19.2818H19.2815H19.2812H19.281H19.2807H19.2805H19.2802H19.2799H19.2797H19.2794H19.2792H19.2789H19.2786H19.2784H19.2781H19.2779H19.2776H19.2773H19.2771H19.2768H19.2766H19.2763H19.276H19.2758H19.2755H19.2753H19.275H19.2747H19.2745H19.2742H19.274H19.2737H19.2734H19.2732H19.2729H19.2727H19.2724H19.2721H19.2719H19.2716H19.2714H19.2711H19.2708H19.2706H19.2703H19.2701H19.2698H19.2696H19.2693H19.269H19.2688H19.2685H19.2683H19.268H19.2677H19.2675H19.2672H19.267H19.2667H19.2664H19.2662H19.2659H19.2657H19.2654H19.2651H19.2649H19.2646H19.2644H19.2641H19.2639H19.2636H19.2633H19.2631H19.2628H19.2626H19.2623H19.262H19.2618H19.2615H19.2613H19.261H19.2607H19.2605H19.2602H19.26H19.2597H19.2594H19.2592H19.2589H19.2587H19.2584H19.2582H19.2579H19.2576H19.2574H19.2571H19.2569H19.2566H19.2563H19.2561H19.2558H19.2556H19.2553H19.255H19.2548H19.2545H19.2543H19.254H19.2538H19.2535H19.2532H19.253H19.2527H19.2525H19.2522H19.2519H19.2517H19.2514H19.2512H19.2509H19.2506H19.2504H19.2501H19.2499H19.2496H19.2494H19.2491H19.2488H19.2486H19.2483H19.2481H19.2478H19.2475H19.2473H19.247H19.2468H19.2465H19.2463H19.246H19.2457H19.2455H19.2452H19.245H19.2447H19.2444H19.2442H19.2439H19.2437H19.2434H19.2431H19.2429H19.2426H19.2424H19.2421H19.2419H19.2416H19.2413H19.2411H19.241H20.3756ZM20.3756 30.5326V29.5326M20.3756 30.5326V29.5326M20.3756 29.5326V6.71973V5.31696M20.3756 29.5326V5.31696M20.3756 5.31696L19.0495 5.77439M20.3756 5.31696L19.0495 5.77439M19.0495 5.77439C19.04 5.77767 19.0289 5.78145 19.0169 5.78557C18.9819 5.79754 18.9385 5.81235 18.9006 5.82605L18.9005 5.82608M19.0495 5.77439L18.9005 5.82608M18.9005 5.82608C17.8459 6.20702 16.7912 6.58801 15.7366 6.96899C13.4998 7.77706 11.2631 8.5851 9.02627 9.39262L9.02618 9.39265M18.9005 5.82608L9.02618 9.39265M9.02618 9.39265C7.46489 9.95645 6.49817 11.3245 6.49785 12.9866C6.49785 12.9867 6.49785 12.9867 6.49785 12.9868L6.49756 14.0001C6.4965 17.715 6.49544 21.4295 6.49258 25.1442V25.1449M9.02618 9.39265L6.49258 25.1449M6.49258 25.1449C6.49258 25.2544 6.48481 25.3581 6.46967 25.4525C6.37543 26.0384 6.09406 26.4387 5.58359 26.7189C4.87395 27.1085 4.16318 27.49 3.44763 27.874C3.13263 28.0431 2.8167 28.2126 2.49953 28.3836L2.49951 28.3836M6.49258 25.1449L2.49951 28.3836M2.49951 28.3836C2.29192 28.4955 2.08499 28.5316 1.84756 28.4963L2.49951 28.3836ZM11.384 2.86256C8.40276 4.56265 5.42234 6.26229 2.44413 7.96638L11.384 2.86256ZM11.384 2.86256C12.2371 2.37605 13.0903 1.88951 13.9435 1.40282L11.384 2.86256ZM19.6941 2.11846C19.6949 2.11854 19.6956 2.11862 19.6963 2.11869M19.6941 2.11846L19.6963 2.11869M19.6963 2.11869C20.0875 2.22618 20.4749 2.33645 20.8674 2.44816C21.048 2.49956 21.2296 2.55126 21.4132 2.60313L19.6963 2.11869ZM28.0864 4.80823C28.5916 5.28579 28.8797 5.84652 28.9665 6.52798M28.0864 4.80823L28.9665 6.52798M28.9665 6.52798C28.9762 6.60468 28.9881 6.68775 28.9984 6.75903C28.9989 6.76279 28.9995 6.76652 29 6.77021V31.0847C28.998 31.0999 28.9961 31.1138 28.9944 31.1269C28.9879 31.1766 28.983 31.2136 28.9755 31.2595L28.9665 6.52798ZM1.69062 28.4591C1.71863 28.4702 1.76625 28.4842 1.84753 28.4963L1.69062 28.4591ZM1.69062 28.4591C1.66644 28.4495 1.65601 28.4417 1.64865 28.4352M1.69062 28.4591L1.64865 28.4352M1.64865 28.4352C1.53297 28.3325 1.40312 28.2414 1.33101 28.1908M1.64865 28.4352C1.64866 28.4352 1.64867 28.4352 1.64868 28.4352L1.33101 28.1908M1.33101 28.1908C1.32029 28.1833 1.31084 28.1767 1.30291 28.1711M1.33101 28.1908L1.30291 28.1711M15.5155 1H15.5157L14.8736 1.0617C14.9781 1.04386 15.071 1.03204 15.1837 1.01769C15.226 1.0123 15.2712 1.00656 15.3208 1H15.3212H15.3219H15.3226H15.3233H15.3239H15.3246H15.3253H15.326H15.3267H15.3274H15.3281H15.3288H15.3294H15.3301H15.3308H15.3315H15.3322H15.3329H15.3336H15.3342H15.3349H15.3356H15.3363H15.337H15.3377H15.3384H15.3391H15.3397H15.3404H15.3411H15.3418H15.3425H15.3432H15.3439H15.3445H15.3452H15.3459H15.3466H15.3473H15.348H15.3487H15.3493H15.35H15.3507H15.3514H15.3521H15.3528H15.3535H15.3542H15.3548H15.3555H15.3562H15.3569H15.3576H15.3583H15.359H15.3596H15.3603H15.361H15.3617H15.3624H15.3631H15.3638H15.3645H15.3651H15.3658H15.3665H15.3672H15.3679H15.3686H15.3693H15.3699H15.3706H15.3713H15.372H15.3727H15.3734H15.3741H15.3748H15.3754H15.3761H15.3768H15.3775H15.3782H15.3789H15.3796H15.3802H15.3809H15.3816H15.3823H15.383H15.3837H15.3844H15.3851H15.3857H15.3864H15.3871H15.3878H15.3885H15.3892H15.3899H15.3905H15.3912H15.3919H15.3926H15.3933H15.394H15.3947H15.3954H15.396H15.3967H15.3974H15.3981H15.3988H15.3995H15.4002H15.4008H15.4015H15.4022H15.4029H15.4036H15.4043H15.405H15.4057H15.4063H15.407H15.4077H15.4084H15.4091H15.4098H15.4105H15.4111H15.4118H15.4125H15.4132H15.4139H15.4146H15.4153H15.416H15.4166H15.4173H15.418H15.4187H15.4194H15.4201H15.4208H15.4214H15.4221H15.4228H15.4235H15.4242H15.4249H15.4256H15.4263H15.4269H15.4276H15.4283H15.429H15.4297H15.4304H15.4311H15.4317H15.4324H15.4331H15.4338H15.4345H15.4352H15.4359H15.4366H15.4372H15.4379H15.4386H15.4393H15.44H15.4407H15.4414H15.442H15.4427H15.4434H15.4441H15.4448H15.4455H15.4462H15.4469H15.4475H15.4482H15.4489H15.4496H15.4503H15.451H15.4517H15.4523H15.453H15.4537H15.4544H15.4551H15.4558H15.4565H15.4572H15.4578H15.4585H15.4592H15.4599H15.4606H15.4613H15.462H15.4626H15.4633H15.464H15.4647H15.4654H15.4661H15.4668H15.4675H15.4681H15.4688H15.4695H15.4702H15.4709H15.4716H15.4723H15.4729H15.4736H15.4743H15.475H15.4757H15.4764H15.4771H15.4778H15.4784H15.4791H15.4798H15.4805H15.4812H15.4819H15.4826H15.4832H15.4839H15.4846H15.4853H15.486H15.4867H15.4874H15.4881H15.4887H15.4894H15.4901H15.4908H15.4915H15.4922H15.4929H15.4935H15.4942H15.4949H15.4956H15.4963H15.497H15.4977H15.4984H15.499H15.4997H15.5004H15.5011H15.5018H15.5025H15.5032H15.5038H15.5045H15.5052H15.5059H15.5066H15.5073H15.508H15.5087H15.5093H15.51H15.5107H15.5114H15.5121H15.5128H15.5135H15.5141H15.5148H15.5155ZM15.3222 30.5333C16.6284 30.5331 17.9346 30.5329 19.2408 30.5326L7.50314 30.535C10.1095 30.5342 12.7158 30.5337 15.3222 30.5333ZM15.4891 36.851L15.489 36.8509L15.4891 36.851Z" stroke="#BDA655" stroke-width="2"/>
</svg>
