<svg width="40" height="30" viewBox="0 0 40 30" fill="none" xmlns="http://www.w3.org/2000/svg">
<path d="M39 21H36V4C36 1.8125 34.1875 0 32 0H8C5.75 0 4 1.8125 4 4V21H1C0.4375 21 0 21.5 0 22V25C0 27.8125 2.1875 30 5 30H35C37.75 30 40 27.8125 40 25V22C40 21.5 39.5 21 39 21ZM6 4C6 2.9375 6.875 2 8 2H32C33.0625 2 34 2.9375 34 4V21H24.4375C24.1875 21 24 21.25 23.9375 21.5C23.6875 22.375 22.9375 23 22 23H18C17 23 16.25 22.375 16 21.5C15.9375 21.25 15.75 21 15.5 21H6V4ZM38 25C38 26.6875 36.625 28 35 28H5C3.3125 28 2 26.6875 2 25V23H14.125C14.5625 24.1875 15.6875 25 17 25H23C24.25 25 25.375 24.1875 25.8125 23H38V25Z" fill="#BDA655"/>
</svg>
