<svg width="24" height="29" viewBox="0 0 24 29" fill="none" xmlns="http://www.w3.org/2000/svg">
<path d="M19.875 14.8125C19.875 12.5 20.9375 10.8125 23 9.5C21.8125 7.8125 20.0625 6.9375 17.75 6.75C15.5 6.5625 13.0625 8 12.1875 8C11.25 8 9.125 6.8125 7.4375 6.8125C3.9375 6.875 0.25 9.5625 0.25 15.125C0.25 16.75 0.5 18.4375 1.125 20.1875C1.9375 22.5 4.8125 28.125 7.8125 28C9.375 28 10.5 26.875 12.5625 26.875C14.5625 26.875 15.5625 28 17.3125 28C20.375 28 23 22.875 23.75 20.5625C19.6875 18.625 19.875 14.9375 19.875 14.8125ZM16.375 4.5625C18.0625 2.5625 17.875 0.6875 17.875 0C16.375 0.125 14.625 1.0625 13.625 2.1875C12.5 3.4375 11.875 5 12 6.6875C13.625 6.8125 15.125 6 16.375 4.5625Z" fill="#BDA655"/>
</svg>
