<svg width="30" height="33" viewBox="0 0 30 33" fill="none" xmlns="http://www.w3.org/2000/svg">
<path d="M28.125 5.25L16.125 0.25C15.8125 0.125 15.3125 0.0625 15 0.0625C14.625 0.0625 14.125 0.125 13.8125 0.25L1.8125 5.25C0.6875 5.75 0 6.8125 0 8C0 20.4375 7.125 29 13.8125 31.8125C14.5625 32.125 15.375 32.125 16.125 31.8125C21.5 29.5625 30 21.875 30 8C30 6.8125 29.25 5.75 28.125 5.25ZM15.375 29.9375C15.125 30.0625 14.8125 30.0625 14.5625 29.9375C8.5 27.5 2 19 2 8C2 7.625 2.1875 7.25 2.5625 7.125L14.5625 2.125C14.8125 2 15.125 2 15.375 2.125L27.375 7.125C27.75 7.25 28 7.625 27.9375 8C28 19 21.5 27.5 15.375 29.9375ZM15 25.6875V6.25L6.0625 10C6.6875 17.5 10.875 23.4375 15 25.6875ZM13 21.5625C10.6875 19.0625 8.875 15.4375 8.1875 11.25L13 9.25V21.5625Z" fill="#BDA655"/>
</svg>
